<svg version="1.1" class="index-log" xmlns="http://www.w3.org/2000/svg" xmlns:xlink="http://www.w3.org/1999/xlink" x="0px" y="0px" width="100" height="100" viewBox="15.167 -16.333 1000.636 1000.678" enable-background="new 15.167 -16.333 1000.636 1000.678" xml:space="preserve" p-id="108"><path fill="#ff0000" d="M555.612,51.974c-5.969-6.147-4.755-15.621-3.306-31.24c1.951-21.032-39.651,9.609-65.162,30.24
          c-206.484,14.534-369.481,186.638-369.481,396.82c0,219.711,178.111,397.821,397.822,397.821s397.821-178.111,397.821-397.821
          C913.306,241.628,756.478,72.094,555.612,51.974z" p-id="109"></path><path fill="#FFFFFF" d="M876.649,473.013c-2.455-51.593-13.974-98.578-34.552-140.959c-20.573-42.38-47.293-78.62-80.154-108.713
          c-32.861-30.097-70.479-53.438-112.86-70.022c-39.116-15.307-80.067-23.531-122.846-24.71c-7.27,6.925-13.917,18.449,1.61,31.075
          c25.006,20.335-12.228,33.319-31.876,28.029c20.613,2.993,57.126-7.758,21.873-29.239c-15.631-9.652-11.594-22.216-6.704-29.978
          c-43.904,0.532-86.371,9.096-127.396,25.746c-42.381,17.199-80,41.151-112.861,71.863c-32.86,30.709-59.729,67.101-80.614,109.176
          c-20.886,42.073-32.861,87.986-35.933,137.734c-2.455,42.381,1.692,81.691,12.438,117.931c10.751,36.239,26.259,68.793,46.528,97.66
          c20.27,28.868,44.683,53.588,73.243,74.165c28.56,20.578,59.426,36.393,92.595,47.446c6.142,1.846,13.355,4.917,21.65,9.213
          c8.29,4.301,16.277,9.37,23.952,15.204c7.679,5.835,14.897,11.976,21.654,18.425c6.757,6.45,11.975,12.438,15.662,17.964
          c8.597,14.128,15.354,26.872,20.27,38.238c4.911,11.36,9.213,21.189,12.899,29.483c3.686,8.29,7.064,14.739,10.135,19.347
          c3.07,4.605,7.059,6.906,11.975,6.906c4.301,0,8.29-2.609,11.975-7.829c3.687-5.223,7.372-12.282,11.057-21.192
          c3.687-8.905,7.983-18.886,12.899-29.939c4.911-11.058,11.053-22.115,18.425-33.169c8.598-12.898,20.424-25.489,35.47-37.771
          c15.047-12.288,29.022-20.886,41.92-25.797c33.168-12.288,64.184-28.411,93.052-48.374c28.867-19.958,53.592-43.914,74.165-71.859
          c20.578-27.95,36.393-59.888,47.451-95.819C874.804,557.313,879.105,517.24,876.649,473.013z M342.441,583.782
          c-3.911,1.658-8.418,2.947-13.524,3.867c-5.104,0.921-10.589,1.382-16.454,1.382c-5.865,0-11.35-0.46-16.456-1.382
          c-5.104-0.921-9.611-2.21-13.522-3.867c-3.911-1.657-6.951-3.568-9.123-5.732c29.4,4.74,50.24,4.221,78.203,0
          C349.391,580.214,346.351,582.125,342.441,583.782z M423.361,505.35c-6.142,12.964-14.589,24.41-25.335,34.337
          c-10.751,9.93-23.341,17.651-37.777,23.166c-14.431,5.519-29.939,8.277-46.523,8.277s-32.092-2.757-46.528-8.277
          c-14.431-5.516-27.176-13.236-38.234-23.166c-11.058-9.927-19.656-21.372-25.797-34.337c-6.142-12.96-9.212-26.887-9.212-41.78
          c0-14.894,3.07-28.82,9.212-41.785c6.142-12.964,14.74-24.271,25.797-33.922c11.057-9.653,23.802-17.375,38.234-23.166
          c14.436-5.792,29.944-8.688,46.528-8.688s32.092,2.896,46.523,8.688c14.436,5.791,27.027,13.513,37.777,23.166
          c10.746,9.651,19.193,20.957,25.335,33.922c6.142,12.964,9.213,26.891,9.213,41.785C432.574,478.464,429.503,492.39,423.361,505.35z
           M515.047,647.155c-0.862,6.051-1.728,12.642-2.594,19.773c-0.863,7.132-4.106,11.996-9.723,14.589
          c-2.594,1.296-5.728,1.945-9.401,1.945c-3.676,0-7.132-0.649-10.375-1.945c-3.24-1.299-5.942-3.459-8.104-6.483
          c-2.161-3.027-3.243-6.916-3.243-11.671c0-5.187,1.082-10.483,3.243-15.884c2.161-5.404,4.863-10.375,8.104-14.914
          c3.242-4.538,6.915-8.319,11.024-11.346c4.106-3.023,8.103-4.968,11.993-5.834c3.026-0.432,5.187,0.433,6.483,2.594
          c1.299,2.161,2.269,4.863,2.919,8.103c0.649,3.243,0.865,6.808,0.649,10.697C515.805,640.673,515.48,644.129,515.047,647.155z
           M565.943,675.035c-2.377,3.023-5.188,5.184-8.427,6.483c-3.243,1.296-6.592,1.945-10.051,1.945c-3.456,0-6.483-0.649-9.076-1.945
          c-5.621-2.594-9.077-7.457-10.373-14.589c-1.299-7.132-2.161-13.723-2.593-19.773c-0.433-3.026-0.65-6.483-0.65-10.375
          c0-3.889,0.217-7.454,0.65-10.697c0.433-3.24,1.403-5.942,2.915-8.103c1.515-2.162,3.785-3.027,6.808-2.594
          c3.892,0.866,7.89,2.81,11.995,5.834c4.106,3.027,7.781,6.808,11.021,11.346c3.243,4.539,5.945,9.51,8.106,14.914
          c2.161,5.401,3.24,10.697,3.24,15.884C569.508,668.119,568.321,672.008,565.943,675.035z M762.895,583.782
          c-3.911,1.658-8.418,2.947-13.524,3.867c-5.104,0.921-10.589,1.382-16.454,1.382c-5.865,0-11.35-0.46-16.456-1.382
          c-5.104-0.921-9.611-2.21-13.522-3.867c-3.911-1.657-6.951-3.568-9.123-5.732c29.4,4.74,50.24,4.221,78.203,0
          C769.845,580.214,766.805,582.125,762.895,583.782z M835.19,505.35c-6.146,12.964-14.743,24.41-25.797,34.337
          c-11.057,9.93-23.802,17.651-38.238,23.166c-14.431,5.519-29.939,8.277-46.523,8.277s-32.092-2.757-46.528-8.277
          c-14.431-5.516-27.176-13.236-38.234-23.166c-11.058-9.927-19.654-21.372-25.796-34.337c-6.142-12.96-9.213-26.887-9.213-41.78
          c0-14.894,3.071-28.82,9.213-41.785c6.142-12.964,14.739-24.41,25.796-34.336c11.057-9.93,23.802-17.652,38.234-23.166
          c14.436-5.515,29.944-8.274,46.528-8.274s32.092,2.758,46.523,8.274c14.436,5.515,27.181,13.236,38.238,23.166
          c11.054,9.926,19.651,21.371,25.797,34.336c6.142,12.964,9.212,26.891,9.212,41.785C844.402,478.464,841.332,492.39,835.19,505.35z" p-id="110"></path></svg>